<svg width="81" height="50" xmlns="http://www.w3.org/2000/svg"><g fill="none" fill-rule="evenodd"><g stroke="#333" stroke-width="1.5"><path d="M7 43V2.538C7 1.688 7.685 1 8.541 1H72.46c.849 0 1.54.686 1.54 1.526v39.978"/><path d="M12.051 42 12 7.48c0-.818.678-1.48 1.52-1.48h53.79c.84 0 1.52.662 1.52 1.48L69 34.214M4.018 42.282l28.812.1v2.504l15.34.136v-2.574L80 42v2.685C80 47.068 78.106 49 75.78 49H5.22C2.89 49 1 47.07 1 44.685"/></g><path d="M40.554 17.57c.878-1.573 2.656-2.586 4.524-2.57a5.034 5.034 0 0 1 2.107.502 5.004 5.004 0 0 1 2.587 3.059c.48 1.621.202 3.46-.836 5.332-1.395 2.574-3.873 4.547-7.963 7.806l-.232.184a.467.467 0 0 1-.25.11V32l-.053-.001A.67.67 0 0 1 40.4 32v-.003c-.112-.011-.147-.046-.223-.114l-.235-.2c-4.092-3.313-6.552-5.327-7.932-7.908-1.003-1.882-1.27-3.73-.752-5.328.423-1.332 1.38-2.398 2.665-2.997a5.11 5.11 0 0 1 2.131-.45c1.866.016 3.564 1.047 4.5 2.57Z" fill="#3782F7"/></g></svg>