<svg width="63" height="56" xmlns="http://www.w3.org/2000/svg" xmlns:xlink="http://www.w3.org/1999/xlink"><defs><path d="M6.776 4.293c-.83.83-.816 1.767.048 3.239l.446.728c.404.767.322 1.077.045 1.354-.334.334-.79.3-1.28-.094a3.614 3.614 0 0 1-.548-.606c-.259-.365-.503-1.012-.592-1.57a.657.657 0 0 0-.187-.376.657.657 0 0 0-.94 0 .661.661 0 0 0-.179.632 4.64 4.64 0 0 0 .921 2.095l-.412.412c-.322.322-.14.962.535.955a.105.105 0 0 0 .072-.03l.556-.556c1.08.86 2.292.894 3.104.083.827-.827.807-1.803-.07-3.26l-.43-.744c-.386-.754-.311-1.045-.038-1.318.323-.323.774-.287 1.237.096.002.002.07.057.163.15.106.105.255.27.363.462.142.247.33.66.434 1.078a.694.694 0 0 0 .178.33c.268.267.683.27.946.007.175-.174.228-.402.157-.658a3.936 3.936 0 0 0-.72-1.545l.52-.52a.106.106 0 0 0 .03-.072c.008-.674-.633-.856-.955-.534l-.351.35c-.546-.446-1.13-.67-1.678-.67-.508 0-.986.193-1.375.582Z" id="a"/></defs><g fill="none" fill-rule="evenodd"><path d="M22.414 1.204a.97.97 0 0 0-1.365.007L1.446 20.813l-.006.007a.97.97 0 0 0 .013 1.372l32.592 31.964a.97.97 0 0 0 1.365-.007l19.602-19.602.007-.007a.97.97 0 0 0-.014-1.372L22.414 1.204Z" stroke="#484848" stroke-width="1.3"/><path d="M17.941 10.432s3.296 3.332 7.375-.32l20.713 20.713s-2.97 3.004-.28 6.71l-7.965 7.964s-3.548-2.817-7.048.683c-1.42-1.36-20.724-20.664-20.724-20.664s3.014-3.843-.132-6.99c2.986-2.986 8.061-8.096 8.061-8.096Z" fill="#3483FA"/><g transform="rotate(45 -9.474 41.175)"><ellipse stroke="#484848" stroke-width="1.2" fill="#FFF" cx="7.461" cy="7.469" rx="7.461" ry="7.469"/><use fill="#484848" transform="rotate(-45 7.454 7.428)" xlink:href="#a"/></g><path d="M30.188 37.277c-.496 0-.975.098-1.424.268a4 4 0 0 0-.902-4.254 4 4 0 0 0-4.173-.926c.5-1.41.2-3.043-.927-4.17a4.007 4.007 0 0 0-4.258-.9c.17-.45.268-.928.268-1.424a3.968 3.968 0 0 0-1.168-2.828 3.974 3.974 0 0 0-2.831-1.168 3.978 3.978 0 0 0-2.831 1.168l-5.505 5.5a3.968 3.968 0 0 0-1.169 2.828c0 1.072.415 2.076 1.169 2.829a3.976 3.976 0 0 0 2.831 1.166c.497 0 .975-.097 1.425-.268a3.998 3.998 0 0 0 .901 4.254 3.99 3.99 0 0 0 2.832 1.17c.456 0 .909-.09 1.343-.244-.15.426-.243.875-.243 1.34a3.97 3.97 0 0 0 1.169 2.83 3.98 3.98 0 0 0 4.258.898c-.17.45-.268.93-.268 1.426a3.97 3.97 0 0 0 1.168 2.829 3.974 3.974 0 0 0 2.83 1.167 3.978 3.978 0 0 0 2.832-1.167l5.504-5.5a3.968 3.968 0 0 0 1.17-2.828 3.97 3.97 0 0 0-1.17-2.83 3.975 3.975 0 0 0-2.83-1.166M61.788 9.436H40.335l-6.179-6.133-.094-.094a1.3 1.3 0 0 0-.872-.346c-.35 0-.664.142-.9.365L20.462 15.13c5.871 5.661 10.677-.104 10.677-.104l2.62-2.625L51.62 30.116l10.168-.088V9.436Z" stroke="#484848" stroke-width="1.3" fill="#FFF" stroke-linejoin="round"/><path d="m10.172 35.734 8.68-8.427m-3.274 13.037 8.139-8.148m-3.256 13.58 8.682-8.691" stroke="#484848" stroke-width="1.2"/></g></svg>